<?xml version="1.0" encoding="UTF-8"?>
<!DOCTYPE svg PUBLIC "-//W3C//DTD SVG 1.1//EN" "http://www.w3.org/Graphics/SVG/1.1/DTD/svg11.dtd">
<!-- Creator: CorelDRAW 2019 (64-Bit) -->
<svg xmlns="http://www.w3.org/2000/svg" xml:space="preserve" width="8.26772in" height="11.6929in" version="1.1" style="shape-rendering:geometricPrecision; text-rendering:geometricPrecision; image-rendering:optimizeQuality; fill-rule:evenodd; clip-rule:evenodd"
viewBox="0 0 8267.72 11692.91"
 xmlns:xlink="http://www.w3.org/1999/xlink"
 xmlns:xodm="http://www.corel.com/coreldraw/odm/2003">
 <defs>
  <style type="text/css">
   <![CDATA[
    .str0 {stroke:white;stroke-width:1.39;stroke-miterlimit:2.61313}
    .fil0 {fill:none}
   ]]>
  </style>
 </defs>
 <g id="Layer_x0020_1">
  <metadata id="CorelCorpID_0Corel-Layer"/>
  <g id="_1212558605360">
   <g>
    <path class="fil0 str0" d="M4180.87 5982.66l-7.7 0 0 3.34 8.45 0c0,4.07 1.65,6.84 -4.78,12.91 -1.24,1.17 -2.62,2.51 -3.5,3.95 -1.28,2.08 -1.17,4.26 1.58,4.26 2.31,0 0.35,-7.16 10.02,-2.58 9.23,4.37 14.48,6.69 23.57,0.52 1.17,-0.8 2.65,-2.05 3.49,-3.12 1.68,-2.11 2.19,-3.07 2.19,-5.48 0,-3.31 -3.79,-3.26 -5.72,-0.41 -1.13,1.67 2.24,6.05 -1.74,6.05 -9.5,0 -11.49,-4.39 -22.61,-4.39 0.44,-0.51 9.2,-4.38 9.2,-10.24l0 -1.46 13.42 0 0 -3.34 -13.91 0 -1.6 -6.39c-0.56,-2.36 -3.18,-11.17 2.34,-11.17 7.15,0 9.34,7.59 13.93,2.31 3.4,-3.91 -4.24,-6.49 -8.46,-6.49 -7.09,0 -16.78,5.77 -18.46,13.11 -0.89,3.92 0.32,6.13 0.32,8.63z"/>
    <path class="fil0 str0" d="M4204.97 5990.18c2.29,0.16 5.41,1.84 7.7,1.88 0.44,-4.42 11.2,-3.81 15.25,-2.17 3.51,1.43 2.89,3.51 2.89,6.77 0,3.38 -3.94,2.72 -7.95,2.72l0 -8.15 -5.97 1.25c-0.84,0.16 -1.73,0.09 -1.73,0.84l0 24.67c3.8,-0.07 7.69,-1.69 7.72,-5.21 0.03,-3.97 -0.01,-7.96 -0.01,-11.93l0.58 0.76c0.96,1.42 1.02,1.9 2.09,2.22 7.71,2.33 6.77,2.69 6.77,10.61 0,1.68 -0.32,3.76 0.15,5.31 1.19,3.96 7.22,6.6 11.54,6.6 0.19,-0.6 0.83,-1.15 1.28,-1.64 0.53,-0.58 0.99,-0.91 1.21,-1.7 -2.04,-0.4 -4.63,-2.13 -5.48,-3.54 -1.3,-2.16 -0.98,-4.37 -0.98,-7.54 0,-3.43 -0.13,-4.65 -1.88,-6.78 -1.04,-1.26 -3.9,-3.09 -5.82,-3.46l0 -0.42c1.51,-0.11 6.21,-2.19 6.21,-5.02 0,-2.37 0.12,-4.42 -1.7,-6.31 -3.13,-3.26 -9.29,-5.4 -14.7,-5.4 -4.62,0 -7.95,-0.11 -12.18,1.46 -2.54,0.94 -3.8,2.32 -4.97,4.18z"/>
    <path class="fil0 str0" d="M4216.9 5967.19l0 -2.93c1.02,0.2 1.4,0.63 1.35,1.43 -0.06,0.93 -0.61,1.17 -1.35,1.5zm-2.73 -7.32c0,-0.85 0.23,-1.08 0.99,-1.25l0 2.51c-0.46,-0.26 -0.99,-0.61 -0.99,-1.26zm0.99 -3.34c-0.97,0.07 -1.87,0.41 -2.41,0.89 -1.87,1.65 -1.46,5.45 2.41,6.21l0 3.35c-0.72,-0.41 -1.02,-0.86 -1.24,-1.67 -1.38,0 -1.71,0.14 -2.73,0.21 0.67,1.17 0.14,1.51 1.41,2.57 2.21,1.84 2.56,-0.17 2.56,2.65l1.74 0 0 -1.67c4.81,-0.09 5.5,-6.93 0,-7.31l0 -3.13c0.65,0.36 0.66,0.21 0.74,1.04l2.74 -0.14c-0.45,-1.67 -1.33,-2.85 -3.48,-3 -0.02,-0.9 0.04,-1.05 -1,-1.05 -0.81,0 -0.74,0.38 -0.74,1.05z"/>
   </g>
   <rect class="fil0 str0" transform="matrix(1.18647 -0 -0.282891 1 4168.63 5940.74)" width="92.81" height="100.33"/>
   <g>
    <rect class="fil0 str0" x="4124.11" y="5959.88" width="42.71" height="3.97"/>
    <rect class="fil0 str0" x="4105.24" y="5972.99" width="61.58" height="3.97"/>
    <rect class="fil0 str0" x="4082.28" y="5986.1" width="84.53" height="3.97"/>
    <rect class="fil0 str0" x="4062.88" y="5999.21" width="103.94" height="3.97"/>
    <rect class="fil0 str0" x="4039.21" y="6012.33" width="127.61" height="3.97"/>
   </g>
  </g>
 </g>
</svg>
